<?xml version="1.0" encoding="utf-8"?>
<!-- Generator: Adobe Illustrator 26.3.1, SVG Export Plug-In . SVG Version: 6.00 Build 0)  -->
<svg version="1.1" id="Layer_1" xmlns="http://www.w3.org/2000/svg" xmlns:xlink="http://www.w3.org/1999/xlink" x="0px" y="0px"
	 viewBox="0 0 275.6 275.6" style="enable-background:new 0 0 1500 275.6;" xml:space="preserve">
<style type="text/css">
	.st0{fill:#FFFFFF;}
	.st1{opacity:5.000000e-02;}
	.st2{opacity:0.1;}
	.st3{opacity:0.15;}
	.st4{opacity:0.2;}
	.st5{opacity:0.25;}
	.st6{opacity:0.3;}
	.st7{opacity:0.35;}
	.st8{opacity:0.4;}
	.st9{opacity:0.45;}
	.st10{opacity:0.5;}
	.st11{opacity:0.55;}
	.st12{opacity:0.6;}
	.st13{opacity:0.65;}
	.st14{opacity:0.7;}
	.st15{opacity:0.75;}
	.st16{opacity:0.8;}
	.st17{opacity:0.85;}
	.st18{opacity:0.9;}
	.st19{opacity:0.95;}
</style>
<g>
	<g>
		<g>
			<g>
				<g>
					<g class="st1">
						<path class="st0" d="M161.3,274.2c-2-2.1-4-4.2-5.8-6.3l5.1-4.5c1.8,2,3.7,4.1,5.6,6.1L161.3,274.2z"/>
					</g>
					<g class="st2">
						<path class="st0" d="M124.1,275.6l-0.4-0.5c-0.8-1.1-1.6-2.2-2.4-3.3c-0.9-1.4-1.8-2.7-2.6-4l5.9-3.7c0.8,1.3,1.6,2.6,2.5,3.9
							c0.7,1,1.4,2,2.2,3.1l0.4,0.5L124.1,275.6z"/>
					</g>
					<g class="st3">
						<path class="st0" d="M86.3,266.3c-0.8-1.6-1.6-3.2-2.3-4.8l-1.1-2.3c-0.3-0.8-0.6-1.5-0.9-2.2l-0.2-0.5l6.7-2.6l0.2,0.5
							c0.2,0.6,0.5,1.2,0.7,1.9l1,2.2c0.7,1.5,1.4,3,2.2,4.6L86.3,266.3z"/>
					</g>
					<g class="st4">
						<path class="st0" d="M52.5,246.8c-1-3.8-1.8-7.7-2.5-11.4l7.2-1.4c0.7,3.6,1.5,7.3,2.5,11L52.5,246.8z"/>
					</g>
					<g class="st5">
						<path class="st0" d="M25.7,218.7c-0.4-4.3-0.2-8.5,0-12.6l0-0.6l7.5,0.3l0,0.6c-0.2,3.9-0.3,7.9,0,11.7L25.7,218.7z"/>
					</g>
					<g class="st6">
						<path class="st0" d="M15.2,185.3l-7.6-1.4c0.5-2.6,0.9-4.9,1.5-7.2l0.4-1.5c0.5-1.8,0.9-3.6,1.5-5.4l7.3,2.4
							c-0.5,1.6-0.9,3.2-1.3,4.9l-0.4,1.6C16,180.7,15.6,182.8,15.2,185.3z"/>
					</g>
					<g class="st7">
						<path class="st0" d="M7.2,148.7L0,145.6c2.2-5,4.7-9.7,7.2-14l6.7,4.1C11.5,139.6,9.3,144,7.2,148.7z"/>
					</g>
					<g class="st8">
						<path class="st0" d="M9.8,111.5l-6.3-5c4.1-5.2,7.7-9.3,11.4-12.8l5.6,5.8C17,102.8,13.6,106.6,9.8,111.5z"/>
					</g>
					<g class="st9">
						<path class="st0" d="M22.7,76.6L17.7,70c4-3.1,9.5-7,15.4-10.3l4,7.2C32.8,69.3,28.4,72.2,22.7,76.6z"/>
					</g>
					<g class="st10">
						<path class="st0" d="M44.9,46.7L41.6,39c6.9-2.9,13.1-5,18.9-6.4l2,8.1C57.1,42,51.4,44,44.9,46.7z"/>
					</g>
					<g class="st11">
						<path class="st0" d="M74.5,24.3l-1.3-8.4c6.8-1.1,14-1.6,21.3-1.5L94.4,23C87.6,22.9,80.9,23.4,74.5,24.3z"/>
					</g>
					<g class="st12">
						<path class="st0" d="M130,15.4c-7-2.1-14-3.5-20.9-4.3l1-8.6c7.3,0.8,14.9,2.3,22.4,4.6L130,15.4z"/>
					</g>
					<g class="st13">
						<path class="st0" d="M166.1,18.5c-6.3-4-13.1-7.5-20.1-10.3l3.3-8.2c7.6,3,14.8,6.7,21.6,11L166.1,18.5z"/>
					</g>
					<g class="st14">
						<path class="st0" d="M199.7,31.9c-5.3-5.9-11.2-11.3-17.6-16.2l5.4-7.2c6.9,5.2,13.3,11.1,18.9,17.4L199.7,31.9z"/>
					</g>
					<g class="st15">
						<path class="st0" d="M227.8,54.5c-3.6-7.5-8.1-14.7-13.3-21.5l7.3-5.6c5.6,7.2,10.4,15,14.3,23.1L227.8,54.5z"/>
					</g>
					<g class="st16">
						<path class="st0" d="M248.1,84.3c-1.5-8.7-3.9-17.3-7.3-25.6l8.7-3.5c3.6,8.9,6.3,18.2,7.9,27.5L248.1,84.3z"/>
					</g>
					<g class="st17">
						<path class="st0" d="M268.4,119.7l-9.5-1.1c1.1-9.2,1.1-18.5,0-27.9l9.5-1.1C269.5,99.7,269.5,109.8,268.4,119.7z"/>
					</g>
					<g class="st18">
						<path class="st0" d="M268.1,158.2l-9-3.8c3.9-9.3,6.6-18.7,8-28.1l9.6,1.5C275.2,138,272.3,148.3,268.1,158.2z"/>
					</g>
					<g class="st19">
						<path class="st0" d="M256.7,195.1l-7.7-6.2c6.6-8.2,12-16.9,16.1-25.9l9,4.1C269.7,176.8,263.8,186.2,256.7,195.1z"/>
					</g>
					<g>
						<path class="st0" d="M235.1,227l-5.7-8.3c9-6.2,16.9-13.4,23.6-21.4l7.7,6.5C253.4,212.4,244.8,220.2,235.1,227z"/>
					</g>
					<g>
						<path class="st0" d="M203.8,251.9l-3.1-9.7c11.1-3.6,21.1-8.3,30-14.2l5.6,8.5C226.7,242.9,215.7,248,203.8,251.9z"/>
					</g>
				</g>
			</g>
			<g class="st18">
				<g>
					<g class="st1">
						<path class="st0" d="M137.5,257.7c-1.4-2.1-2.8-4.2-4-6.3l5-3.1c1.2,2,2.5,4,3.9,6L137.5,257.7z"/>
					</g>
					<g class="st2">
						<path class="st0" d="M105.5,253.3l-0.2-0.4c-0.6-1.1-1.1-2.2-1.6-3.4c-0.6-1.3-1.1-2.6-1.6-3.8l5.6-2.3c0.5,1.2,1,2.4,1.5,3.7
							c0.5,1,1,2.1,1.5,3.1l0.2,0.4L105.5,253.3z"/>
					</g>
					<g class="st3">
						<path class="st0" d="M74.7,239.7c-0.4-1.5-0.8-3-1.2-4.4c-0.4-1.5-0.8-3-1.1-4.6l6.1-1.1c0.3,1.4,0.6,2.7,0.9,4.1
							c0.4,1.4,0.8,2.9,1.2,4.3L74.7,239.7z"/>
					</g>
					<g class="st4">
						<path class="st0" d="M48.8,218c-0.2-3.4-0.4-6.8-0.5-10.1l6.4-0.1c0.1,3.2,0.2,6.5,0.4,9.8L48.8,218z"/>
					</g>
					<g class="st5">
						<path class="st0" d="M36.6,190.5l-6.5-0.6c0.3-3.7,1.1-7.3,1.9-10.8l0.1-0.4l6.4,1.4l-0.1,0.4
							C37.6,183.8,36.9,187.2,36.6,190.5z"/>
					</g>
					<g class="st6">
						<path class="st0" d="M26.2,159.8l-6.3-2.2c1.3-3.7,3-7.5,4.9-11.5l6,3C29,152.8,27.4,156.4,26.2,159.8z"/>
					</g>
					<g class="st7">
						<path class="st0" d="M24.8,127.4l-5.6-3.8c2.7-4,5.4-7.6,8.3-10.9l5.1,4.5C29.9,120.3,27.4,123.6,24.8,127.4z"/>
					</g>
					<g class="st8">
						<path class="st0" d="M32.7,96.1l-4.6-5.2c4.3-3.8,8-6.7,11.6-9.2l3.9,5.8C40.2,89.7,36.7,92.5,32.7,96.1z"/>
					</g>
					<g class="st9">
						<path class="st0" d="M48.9,68.2l-3.2-6.3c5.8-3,10.3-5,14.7-6.5l2.3,6.7C58.7,63.5,54.4,65.4,48.9,68.2z"/>
					</g>
					<g class="st10">
						<path class="st0" d="M72.4,46L70.8,39c6.4-1.4,11.9-2.3,17.1-2.7l0.5,7.2C83.6,43.9,78.3,44.7,72.4,46z"/>
					</g>
					<g class="st11">
						<path class="st0" d="M118.2,33.3c-5.8-1.1-11.6-1.7-17.2-1.8l0.1-7.4c6,0.1,12.2,0.8,18.4,2L118.2,33.3z"/>
					</g>
					<g class="st12">
						<path class="st0" d="M149.7,32.1c-5.7-2.8-11.5-5.1-17.2-6.8l2.1-7.2c6.1,1.8,12.3,4.2,18.4,7.3L149.7,32.1z"/>
					</g>
					<g class="st13">
						<path class="st0" d="M180.1,40.2c-4.8-4.4-10-8.3-15.7-11.8l4.1-6.5c6,3.7,11.7,8,16.8,12.7L180.1,40.2z"/>
					</g>
					<g class="st14">
						<path class="st0" d="M206.7,56.7c-3.6-5.8-7.8-11.3-12.6-16.5l5.7-5.3c5.1,5.5,9.7,11.4,13.6,17.7L206.7,56.7z"/>
					</g>
					<g class="st15">
						<path class="st0" d="M227.3,80.3c-1.9-6.9-4.7-13.8-8.1-20.3l7.1-3.7c3.7,7,6.6,14.4,8.7,21.9L227.3,80.3z"/>
					</g>
					<g class="st16">
						<path class="st0" d="M248.3,108.8l-8.1,0c0-7.6-0.8-15.3-2.4-22.9l8-1.7C247.5,92.3,248.4,100.6,248.3,108.8z"/>
					</g>
					<g class="st17">
						<path class="st0" d="M252.1,142l-7.9-2.4c2.3-7.7,3.7-15.7,4.2-23.8l8.3,0.5C256.1,125.1,254.6,133.7,252.1,142z"/>
					</g>
					<g class="st18">
						<path class="st0" d="M246.1,174.8l-7.1-4.6c4.7-7.3,8.4-15,11.1-22.8l8,2.7C255.2,158.7,251.2,166.9,246.1,174.8z"/>
					</g>
					<g class="st19">
						<path class="st0" d="M230.8,204.5l-5.6-6.5c6.9-6,12.8-12.6,17.6-19.7l7.1,4.8C244.6,190.9,238.2,198.1,230.8,204.5z"/>
					</g>
					<g>
						<path class="st0" d="M207.6,228.5l-3.6-7.9c8.6-4,16.5-8.9,23.4-14.7l5.6,6.7C225.4,218.9,216.9,224.2,207.6,228.5z"/>
					</g>
					<g>
						<path class="st0" d="M177.1,245.1l-1.2-8.8c10-1.4,19.3-3.9,27.7-7.6l3.5,8.1C198,240.8,187.9,243.6,177.1,245.1z"/>
					</g>
				</g>
			</g>
			<g class="st16">
				<g>
					<g class="st1">
						<path class="st0" d="M120.1,237.6c-0.9-1.9-1.7-3.9-2.4-5.8l4.7-1.8c0.7,1.9,1.5,3.7,2.4,5.6L120.1,237.6z"/>
					</g>
					<g class="st2">
						<path class="st0" d="M94.1,229.3l-0.2-0.6c-0.3-0.9-0.6-1.9-0.8-2.8l-0.8-3.4l5-1.1l0.8,3.4c0.2,0.8,0.5,1.7,0.7,2.5l0.2,0.6
							L94.1,229.3z"/>
					</g>
					<g class="st3">
						<path class="st0" d="M70.4,213.4l-0.1-1.4c-0.2-2.2-0.4-4.2-0.4-6.4l5.3,0c0,2,0.2,3.9,0.4,5.9l0.1,1.4L70.4,213.4z"/>
					</g>
					<g class="st4">
						<path class="st0" d="M57.4,192.1l-5.4-0.6c0.3-2.9,0.7-5.8,1.1-8.5l5.3,0.8C58.1,186.5,57.7,189.2,57.4,192.1z"/>
					</g>
					<g class="st5">
						<path class="st0" d="M45.9,166.9l-5.3-1.4c0.8-3.1,2-6,3.2-8.8l5.2,1.8l-0.1,0.3C47.8,161.4,46.6,164.2,45.9,166.9z"/>
					</g>
					<g class="st6">
						<path class="st0" d="M41.9,139.6l-5-2.6c1.4-2.7,3.2-5.2,4.9-7.6l0.9-1.3l4.6,3.3l-0.9,1.3C44.7,135,43.1,137.3,41.9,139.6z"
							/>
					</g>
					<g class="st7">
						<path class="st0" d="M45.5,112.6l-4.2-4l4.2-4.2c1.5-1.3,2.9-2.5,4.3-3.7l3.7,4.4c-1.4,1.1-2.8,2.3-4.2,3.6l-1.9,1.8
							L45.5,112.6z"/>
					</g>
					<g class="st8">
						<path class="st0" d="M56.6,87.6l-3.1-5l5.5-3.3c1.9-1,3.7-1.9,5.5-2.7L67,82c-1.8,0.8-3.5,1.7-5.4,2.6L59.2,86L56.6,87.6z"/>
					</g>
					<g class="st9">
						<path class="st0" d="M74.3,66.8l-1.8-5.7l4.8-1.5c0.5-0.1,1-0.2,1.4-0.3l0.5-0.1c2.2-0.5,4.4-0.9,6.5-1.3l1.2,5.9
							c-2.1,0.4-4.2,0.8-6.3,1.3l-0.6,0.1c-0.3,0.1-0.6,0.1-1,0.2L74.3,66.8z"/>
					</g>
					<g class="st10">
						<path class="st0" d="M110.8,52l-7-0.4c-1.5-0.1-3,0-4.5,0.1c-0.8,0-1.5,0.1-2.3,0.1l-0.2-6.1c0.7,0,1.5-0.1,2.2-0.1
							c1.8-0.1,3.5-0.2,5.2-0.1l7.1,0.4L110.8,52z"/>
					</g>
					<g class="st11">
						<path class="st0" d="M137.1,47.9l-1.8-0.7c-1.7-0.6-3.4-1.2-5.1-1.8l-7.3-1.7l1.4-6.1l7.4,1.8c2,0.6,3.9,1.3,5.6,1.9l1.8,0.6
							L137.1,47.9z"/>
					</g>
					<g class="st12">
						<path class="st0" d="M163.4,51.6l-4-2.8c-0.7-0.5-1.4-1-2.2-1.4c-2.4-1.4-4.8-2.7-7.2-4l3.1-5.6c2.5,1.3,4.9,2.7,7.2,4
							c0.9,0.5,1.9,1.2,2.9,1.8l4,2.9L163.4,51.6z"/>
					</g>
					<g class="st13">
						<path class="st0" d="M187.5,62.8l-3.4-4.2c-0.6-0.7-1.1-1.4-1.8-2l-0.9-0.9c-1.7-1.7-3.5-3.5-5.3-5.2l4.5-4.7
							c1.9,1.8,3.7,3.6,5.4,5.4l0.8,0.8c0.8,0.7,1.5,1.6,2.3,2.6l3.4,4.2L187.5,62.8z"/>
					</g>
					<g class="st14">
						<path class="st0" d="M207.3,80.5l-1.8-4.1c-0.2-0.4-0.4-0.9-0.6-1.4c-0.3-0.8-0.7-1.6-1.1-2.3l-1.2-2.2
							c-1.1-1.9-2.2-3.9-3.4-5.8l5.6-3.5c1.3,2,2.4,4,3.6,6l1.2,2.1c0.6,0.9,1.1,2.1,1.5,3c0.2,0.4,0.4,0.9,0.6,1.3l1.8,4.2
							L207.3,80.5z"/>
					</g>
					<g class="st15">
						<path class="st0" d="M221,103.1l-0.6-4.7c-0.1-0.4-0.1-0.9-0.2-1.5c-0.1-0.9-0.2-1.9-0.5-2.8l-2.4-9.2l6.4-2.3l0.8,2.6
							l1.8,7.1c0.3,1.2,0.5,2.5,0.7,3.6c0.1,0.5,0.1,0.9,0.2,1.4l0.6,4.7L221,103.1z"/>
					</g>
					<g class="st16">
						<path class="st0" d="M234.3,129.8l-6.8-1.2c1.2-6.3,1.6-12.8,1.4-19.4l6.9-0.2C236,116,235.5,123,234.3,129.8z"/>
					</g>
					<g class="st17">
						<path class="st0" d="M232.6,158l-6.3-3l0.8-1.7c1.2-2.5,2.4-5,3.2-7.5l1.8-5.2c0.3-1,0.5-2,0.8-3.1c0.1-0.6,0.3-1.2,0.4-1.9
							l6.8,1.7l-0.4,1.7c-0.3,1.3-0.6,2.5-1,3.7l-1.8,5.2c-0.9,2.9-2.2,5.7-3.5,8.4L232.6,158z"/>
					</g>
					<g class="st18">
						<path class="st0" d="M222.8,184.5l-5.4-4.7l1.4-1.6c1.9-2.1,3.8-4.3,5.3-6.6l3.3-4.7l2.6-4.6l6.2,3.5l-2.8,4.9l-3.5,4.9
							c-1.7,2.6-3.8,5-5.8,7.3L222.8,184.5z"/>
					</g>
					<g class="st19">
						<path class="st0" d="M205.8,206.9l-4-6.1c0.8-0.5,1.6-1,2.4-1.6c2.3-1.5,4.7-3,6.6-4.7l1.3-1.1c1.1-0.9,2.2-1.8,3.3-2.7l4-4
							l5.1,5.2l-4.2,4.1c-1.3,1.1-2.5,2.1-3.6,3l-1.2,1c-2.3,2-4.9,3.7-7.4,5.3C207.3,205.9,206.6,206.4,205.8,206.9z"/>
					</g>
					<g>
						<path class="st0" d="M183,223.5l-2.2-7c1-0.3,2.1-0.6,3.2-1c2.6-0.8,5.4-1.6,7.8-2.7l1.9-0.8c1.2-0.5,2.5-1,3.7-1.6l5.3-2.9
							l3.5,6.5l-5.5,3c-1.5,0.7-2.9,1.3-4.2,1.8l-1.7,0.7c-2.8,1.3-5.8,2.2-8.7,3C185,222.9,184,223.2,183,223.5z"/>
					</g>
					<g>
						<path class="st0" d="M155.1,232.9l0-7.5l7.3,0c0.7,0,1.3,0,2,0l9.2-1l6-1.3l1.6,7.3l-6.3,1.3l-9.9,1.1c-1,0-1.8,0-2.5,0.1
							L155.1,232.9z"/>
					</g>
				</g>
			</g>
			<g class="st14">
				<g>
					<g class="st1">
						<path class="st0" d="M109.5,215.8c-0.4-1.7-0.8-3.4-1.1-5l4-0.8c0.3,1.6,0.7,3.2,1.1,4.8L109.5,215.8z"/>
					</g>
					<g class="st2">
						<path class="st0" d="M89.7,205.4c-0.2-1.7-0.4-3.6-0.4-5.8l4.2-0.1c0.1,2,0.2,3.8,0.4,5.4L89.7,205.4z"/>
					</g>
					<g class="st3">
						<path class="st0" d="M77.2,189.5l-4.3-0.3l0.1-1.1c0.1-1.8,0.3-3.5,0.6-5.3l4.2,0.7c-0.3,1.6-0.4,3.2-0.5,4.9L77.2,189.5z"/>
					</g>
					<g class="st4">
						<path class="st0" d="M65.4,170.1l-4.2-1.2c0.7-2.3,1.4-4.6,2.1-6.7l4.2,1.4C66.7,165.7,66.1,167.9,65.4,170.1z"/>
					</g>
					<g class="st5">
						<path class="st0" d="M59.7,148.2l-4.1-1.9c1.1-2.3,2.5-4.5,3.8-6.5l4,2.1l-0.2,0.3C62,144.1,60.7,146.1,59.7,148.2z"/>
					</g>
					<g class="st6">
						<path class="st0" d="M60.3,125.7l-3.7-2.8c1.5-2,3.3-3.7,5-5.4l0.9-0.9l3.2,3.3l-1,0.9C63.3,122.3,61.6,123.9,60.3,125.7z"/>
					</g>
					<g class="st7">
						<path class="st0" d="M67.2,104.3l-2.9-3.7c2.6-2.1,5.5-3.7,8-5.2l2.3,4.1C72.2,100.9,69.5,102.5,67.2,104.3z"/>
					</g>
					<g class="st8">
						<path class="st0" d="M79.6,85.8l-1.7-4.5c0.5-0.2,1-0.4,1.4-0.6c1.1-0.5,2.3-0.9,3.5-1.3l4.7-1.4l1.3,4.6l-4.7,1.4
							c-1.1,0.3-2,0.7-2.9,1.1C80.6,85.4,80.1,85.6,79.6,85.8z"/>
					</g>
					<g class="st9">
						<path class="st0" d="M96.8,71.5l-0.7-4.9l2.7-0.4c1-0.1,2-0.3,3-0.3l5.3-0.2l0.1,4.9l-5.3,0.2c-0.8,0-1.6,0.1-2.4,0.2
							L96.8,71.5z"/>
					</g>
					<g class="st10">
						<path class="st0" d="M128.3,64.8l-5.6-1.4c-1.2-0.3-2.4-0.4-3.7-0.6l-1.8-0.2l0.7-5l1.7,0.2c1.4,0.2,2.8,0.3,4.3,0.7l5.6,1.4
							L128.3,64.8z"/>
					</g>
					<g class="st11">
						<path class="st0" d="M150.1,65.2l-1.3-0.8c-1.3-0.7-2.6-1.5-4-2.2l-5.6-2.4l2-4.7l5.8,2.5c1.6,0.8,3,1.6,4.3,2.4l1.3,0.7
							L150.1,65.2z"/>
					</g>
					<g class="st12">
						<path class="st0" d="M170.9,72c-0.5-0.5-1-1-1.5-1.5c-1-1-2-2-3.1-2.9l-5.2-4.2l3.3-4l5.2,4.2c1.2,1,2.4,2.2,3.5,3.3
							c0.5,0.5,0.9,1,1.4,1.4L170.9,72z"/>
					</g>
					<g class="st13">
						<path class="st0" d="M188.7,84.4c-0.4-0.6-0.7-1.3-1.1-2c-0.7-1.3-1.4-2.6-2.3-3.9l-0.7-0.9c-1.1-1.6-2.2-3.2-3.4-4.8l4.3-3.2
							c1.2,1.6,2.4,3.3,3.5,4.9l0.7,1c1,1.4,1.8,2.9,2.6,4.4c0.3,0.6,0.7,1.3,1,1.9L188.7,84.4z"/>
					</g>
					<g class="st14">
						<path class="st0" d="M202.1,101.5c-0.2-0.7-0.4-1.5-0.6-2.3c-0.4-1.6-0.7-3.1-1.2-4.7l-0.7-1.9c-0.6-1.7-1.2-3.4-1.9-5l5-2.1
							c0.7,1.8,1.3,3.5,2,5.3l0.7,1.9c0.6,1.8,1,3.5,1.4,5.2c0.2,0.7,0.3,1.5,0.5,2.2L202.1,101.5z"/>
					</g>
					<g class="st15">
						<path class="st0" d="M215.5,121.9l-5.5-0.2c0-0.8,0.1-1.6,0.1-2.5c0.1-1.7,0.2-3.4,0.1-5.1c-0.1-0.7-0.1-1.5-0.2-2.4
							c-0.1-1.8-0.2-3.5-0.5-5.3l5.5-0.8c0.3,1.9,0.4,3.9,0.5,5.8c0,0.8,0.1,1.6,0.2,2.4c0.1,2,0,3.9-0.1,5.7
							C215.5,120.3,215.5,121.1,215.5,121.9z"/>
					</g>
					<g class="st16">
						<path class="st0" d="M216.8,145.1l-5.3-2c1.8-4.9,3.1-10.1,3.9-15.5l5.6,0.8C220.2,134.2,218.8,139.8,216.8,145.1z"/>
					</g>
					<g class="st17">
						<path class="st0" d="M211.5,167.5l-4.7-3.3l0.9-1.3c1.3-1.8,2.6-3.6,3.6-5.5l2.2-3.9c0.4-0.7,0.7-1.6,1.1-2.4l0.6-1.4l5.2,2.3
							l-0.6,1.3c-0.4,1-0.8,1.9-1.3,2.9l-2.2,3.9c-1.1,2.2-2.6,4.2-4,6.2L211.5,167.5z"/>
					</g>
					<g class="st18">
						<path class="st0" d="M199.8,187.5l-3.7-4.5l1.3-1c1.8-1.4,3.7-2.9,5.2-4.6l3.4-3.3l2.8-3.4l4.5,3.7l-3,3.6l-3.5,3.5
							c-1.8,1.9-3.8,3.5-5.8,5.1L199.8,187.5z"/>
					</g>
					<g class="st19">
						<path class="st0" d="M182.9,203.2l-2.4-5.4l2.2-0.9c2.1-0.9,4.2-1.7,6-2.8l1.3-0.7c1-0.5,2-1.1,3-1.7l3.8-2.6l3.4,4.9l-4,2.7
							c-1.2,0.7-2.3,1.3-3.3,1.9l-1.1,0.6c-2.1,1.3-4.5,2.3-6.7,3.2L182.9,203.2z"/>
					</g>
					<g>
						<path class="st0" d="M162.1,213.3l-0.8-6c0.9-0.1,1.8-0.2,2.7-0.3c2.2-0.2,4.5-0.5,6.6-1.1l1.7-0.4c1.1-0.2,2.1-0.5,3.2-0.8
							l4.6-1.6l1.9,5.7l-4.8,1.6c-1.3,0.4-2.5,0.6-3.6,0.9l-1.6,0.4c-2.4,0.7-5,0.9-7.4,1.2C163.9,213.1,163,213.2,162.1,213.3z"/>
					</g>
					<g>
						<path class="st0" d="M154.4,218.8l-8.1-0.5c-0.8-0.1-1.4-0.2-2.1-0.3l-5.8-1l1.1-6.1l5.8,1c0.5,0.1,1.1,0.2,1.6,0.3l7.6,0.5
							l5-0.2l0.2,6.1L154.4,218.8z"/>
					</g>
				</g>
			</g>
			<g class="st12">
				<g>
					<g class="st1">
						<path class="st0" d="M105.8,193.7c-0.1-1.4-0.2-2.7-0.2-4l3.2-0.1c0,1.3,0.1,2.5,0.2,3.8L105.8,193.7z"/>
					</g>
					<g class="st2">
						<path class="st0" d="M95.3,183.2l-3.3-0.1c0.1-1.5,0.2-3,0.4-4.5l3.2,0.5C95.5,180.5,95.4,181.9,95.3,183.2z"/>
					</g>
					<g class="st3">
						<path class="st0" d="M84.6,169.2l-3.2-0.8l0.2-0.8c0.3-1.4,0.7-2.7,1.2-4l3.1,1.1c-0.4,1.2-0.7,2.4-1.1,3.7L84.6,169.2z"/>
					</g>
					<g class="st4">
						<path class="st0" d="M78.2,152.8l-3.1-1.5c0.8-1.7,1.7-3.3,2.5-4.8l3,1.7C79.8,149.6,79,151.2,78.2,152.8z"/>
					</g>
					<g class="st5">
						<path class="st0" d="M76.8,135.2l-2.9-2c1.2-1.7,2.5-3.1,3.9-4.6l2.7,2.2l-0.1,0.1C79.1,132.4,77.9,133.8,76.8,135.2z"/>
					</g>
					<g class="st6">
						<path class="st0" d="M80.3,118.1l-2.4-2.6c1.4-1.3,3-2.4,4.6-3.5l0.8-0.6l2,2.9l-0.9,0.6C83.1,115.9,81.6,116.9,80.3,118.1z"
							/>
					</g>
					<g class="st7">
						<path class="st0" d="M88.4,102.6l-1.8-3.2c2.2-1.2,4.7-2.1,6.8-2.9l1.2,3.4C92.6,100.8,90.4,101.6,88.4,102.6z"/>
					</g>
					<g class="st8">
						<path class="st0" d="M100.5,90.1l-0.9-3.6c2.7-0.7,5.5-1,7.9-1.2l0.4,3.7C105.6,89.3,103,89.5,100.5,90.1z"/>
					</g>
					<g class="st9">
						<path class="st0" d="M123.7,82.4l-4.1-0.6c-0.9-0.2-1.8-0.2-2.6-0.2c-0.5,0-0.9,0-1.4-0.1l0.2-3.8l1.3,0c1,0,2.1,0.1,3.1,0.2
							l4.1,0.6L123.7,82.4z"/>
					</g>
					<g class="st10">
						<path class="st0" d="M140.6,80.7l-4.1-1.8c-0.9-0.4-1.8-0.6-2.8-0.9l-1.4-0.4l1.2-3.7l1.3,0.4c1.1,0.3,2.1,0.7,3.2,1.1
							l4.1,1.8L140.6,80.7z"/>
					</g>
					<g class="st11">
						<path class="st0" d="M157.3,83.9l-1-0.9c-0.8-0.7-1.7-1.4-2.6-2.1l-4-2.6l2.2-3.3l4.1,2.7c1.1,0.8,2,1.6,2.9,2.3l1,0.8
							L157.3,83.9z"/>
					</g>
					<g class="st12">
						<path class="st0" d="M172.2,91.9c-0.3-0.4-0.6-0.9-0.9-1.4c-0.6-0.9-1.2-1.8-1.9-2.6L166,84l3.1-2.7l3.4,3.9
							c0.8,1,1.5,2,2.2,3l0.9,1.3L172.2,91.9z"/>
					</g>
					<g class="st13">
						<path class="st0" d="M184.2,103.8l-0.5-1.6c-0.4-1.1-0.8-2.3-1.3-3.3c-0.8-1.8-1.6-3.4-2.3-5l3.7-1.8c0.8,1.6,1.5,3.2,2.3,4.8
							c0.7,1.5,1.1,2.8,1.5,4l0.5,1.5L184.2,103.8z"/>
					</g>
					<g class="st14">
						<path class="st0" d="M192.2,118.7l-0.1-1.8c-0.1-1.3-0.1-2.5-0.3-3.8l-0.3-1.5c-0.2-1.4-0.5-2.7-0.8-4.1l4.1-0.9
							c0.3,1.5,0.6,2.9,0.8,4.3l0.3,1.5c0.2,1.4,0.3,2.8,0.4,4.2l0.1,1.7L192.2,118.7z"/>
					</g>
					<g class="st15">
						<path class="st0" d="M199.6,136.1l-4.2-0.8c0.1-0.6,0.3-1.3,0.4-1.9c0.3-1.3,0.6-2.5,0.7-3.8l0.2-1.9c0.2-1.3,0.3-2.7,0.4-4.1
							l4.3,0.1c0,1.5-0.2,3-0.4,4.5l-0.2,1.9c-0.2,1.5-0.5,2.9-0.8,4.3C199.9,134.9,199.8,135.5,199.6,136.1z"/>
					</g>
					<g class="st16">
						<path class="st0" d="M197.5,154.1l-3.8-2.2c2.1-3.5,3.8-7.3,5.1-11.3l4.2,1.3C201.6,146.2,199.8,150.3,197.5,154.1z"/>
					</g>
					<g class="st17">
						<path class="st0" d="M190.4,170.6l-3.2-3.2l0.9-0.9c1.2-1.2,2.5-2.4,3.5-3.8l2.2-2.7c0.4-0.5,0.8-1.1,1.2-1.7l0.7-1l3.7,2.5
							l-0.6,0.9c-0.5,0.7-0.9,1.4-1.4,2l-2.2,2.7c-1.1,1.5-2.5,2.9-3.9,4.2L190.4,170.6z"/>
					</g>
					<g class="st18">
						<path class="st0" d="M178.8,184.3l-2.2-4l1.1-0.6c1.6-0.9,3.2-1.8,4.6-2.8l3-2.1l2.6-2.2l2.9,3.5l-2.8,2.3l-3.1,2.2
							c-1.6,1.2-3.4,2.2-5.1,3.1L178.8,184.3z"/>
					</g>
					<g class="st19">
						<path class="st0" d="M163.7,194l-1.1-4.5l1.8-0.4c1.7-0.4,3.5-0.8,5-1.4l3.6-1.3l3.2-1.5l1.9,4.2l-3.4,1.6l-3.8,1.3
							c-1.8,0.7-3.7,1.1-5.6,1.5L163.7,194z"/>
					</g>
					<g>
						<path class="st0" d="M152.2,199.2c-1.3,0-2.5-0.1-3.8-0.2c-0.7,0-1.3-0.1-2-0.1l0.2-4.7c0.7,0,1.4,0.1,2.1,0.1
							c1.7,0.1,3.5,0.2,5.2,0.1l1.3-0.1c0.9,0,1.7-0.1,2.6-0.1l3.8-0.6l0.7,4.6l-3.9,0.6c-1.1,0.1-2,0.1-2.9,0.2l-1.2,0.1
							C153.6,199.2,152.9,199.2,152.2,199.2z"/>
					</g>
					<g>
						<path class="st0" d="M143.8,202.7l-4.1-0.6l-6.2-1.5c-0.6-0.2-1-0.3-1.5-0.5l-4.4-1.6l1.6-4.5l4.4,1.6
							c0.4,0.1,0.8,0.3,1.1,0.4l5.8,1.4l3.8,0.5L143.8,202.7z"/>
					</g>
				</g>
			</g>
		</g>
	</g>
</g>
</svg>
